<!-- Generated by IcoMoon.io -->
<svg version="1.1" xmlns="http://www.w3.org/2000/svg" width="29" height="32" viewBox="0 0 29 32">
<title>assignment</title>
<path d="M6.516 22.4h11.2v3.2h-11.2v-3.2zM6.516 16h16v3.2h-16v-3.2zM6.516 9.6h16v3.2h-16v-3.2zM25.716 3.2h-6.688c-0.672-1.856-2.432-3.2-4.512-3.2s-3.84 1.344-4.512 3.2h-6.688c-0.224 0-0.432 0.016-0.64 0.064-0.624 0.128-1.184 0.448-1.616 0.88-0.288 0.288-0.528 0.64-0.688 1.024-0.16 0.368-0.256 0.784-0.256 1.232v22.4c0 0.432 0.096 0.864 0.256 1.248s0.4 0.72 0.688 1.024c0.432 0.432 0.992 0.752 1.616 0.88 0.208 0.032 0.416 0.048 0.64 0.048h22.4c1.76 0 3.2-1.44 3.2-3.2v-22.4c0-1.76-1.44-3.2-3.2-3.2zM14.516 2.8c0.656 0 1.2 0.544 1.2 1.2s-0.544 1.2-1.2 1.2c-0.656 0-1.2-0.544-1.2-1.2s0.544-1.2 1.2-1.2zM25.716 28.8h-22.4v-22.4h22.4v22.4z"></path>
</svg>
