<!-- Generated by IcoMoon.io -->
<svg version="1.1" xmlns="http://www.w3.org/2000/svg" width="42" height="32" viewBox="0 0 42 32">
<title>mail</title>
<path d="M37.921 31.691c1.090 0 2.016-0.381 2.779-1.144s1.144-1.689 1.144-2.779v0-23.537c0-1.090-0.381-2.016-1.144-2.779s-1.689-1.144-2.779-1.144v0h-33.998c-1.090 0-2.016 0.381-2.779 1.144s-1.144 1.689-1.144 2.779v0 23.537c0 1.090 0.381 2.016 1.144 2.779s1.689 1.144 2.779 1.144v0h33.998zM20.922 19.923c-0.708 0-1.58-0.354-2.615-1.062-0.654-0.381-1.526-1.035-2.615-1.961v0l-0.736-0.654c-5.448-4.25-9.126-7.137-11.033-8.663v0-3.351h33.998v3.351c-1.907 1.58-5.585 4.468-11.033 8.663v0l-0.736 0.654c-1.090 0.926-1.961 1.58-2.615 1.961-1.035 0.708-1.907 1.062-2.615 1.062zM37.921 27.769h-33.998v-15.201l9.399 7.519c1.417 1.144 2.534 1.961 3.351 2.452 1.526 0.872 2.942 1.308 4.25 1.308s2.697-0.436 4.168-1.308c0.872-0.49 1.989-1.308 3.351-2.452v0l9.48-7.519v15.201z"></path>
</svg>
