<!-- Generated by IcoMoon.io -->
<svg version="1.1" xmlns="http://www.w3.org/2000/svg" width="24" height="32" viewBox="0 0 24 32">
<title>pdf</title>
<path d="M23.304 6.124l-5.243-5.243c-0.562-0.562-1.325-0.881-2.118-0.881h-12.754c-1.656 0.006-2.999 1.35-2.999 3.006v25.995c0 1.656 1.343 2.999 2.999 2.999h17.996c1.656 0 2.999-1.343 2.999-2.999v-20.752c0-0.794-0.319-1.562-0.881-2.125zM21.892 7.542c0.131 0.131 0.219 0.287 0.262 0.462h-5.968v-5.968c0.175 0.044 0.331 0.131 0.462 0.262l5.243 5.243zM21.186 30h-17.996c-0.55 0-1-0.45-1-1v-25.995c0-0.55 0.45-1 1-1h10.998v6.499c0 0.831 0.669 1.5 1.5 1.5h6.499v18.996c0 0.55-0.45 1-1 1zM19.811 19.302c-0.844-0.831-3.437-0.575-4.605-0.419-1.325-0.8-2.2-1.9-2.818-3.537 0.269-1.125 0.75-2.949 0.4-4.055-0.275-1.756-2.481-1.543-2.787-0.425-0.312 1.144-0.019 2.774 0.525 4.862-0.744 1.775-1.856 4.18-2.631 5.536-1.3 0.669-3.381 1.831-3.674 3.274-0.219 1.050 1.431 2.462 3.318 0.4 0.569-0.619 1.206-1.55 1.956-2.843 1.668-0.55 3.506-1.237 5.124-1.5 1.368 0.75 2.974 1.244 4.037 1.244 1.731 0.006 1.806-1.887 1.156-2.537v0zM5.489 24.864c0.369-0.994 1.787-2.15 2.218-2.55-1.381 2.206-2.218 2.593-2.218 2.55zM11.438 10.973c0.544 0 0.487 2.343 0.131 2.974-0.325-1.019-0.312-2.974-0.131-2.974zM9.663 20.927c0.706-1.237 1.312-2.7 1.8-3.98 0.606 1.106 1.381 1.981 2.193 2.593-1.518 0.294-2.837 0.944-3.993 1.387zM19.249 20.558c0 0-0.362 0.437-2.718-0.569 2.562-0.187 2.981 0.4 2.718 0.569z"></path>
</svg>
