<!-- Generated by IcoMoon.io -->
<svg version="1.1" xmlns="http://www.w3.org/2000/svg" width="32" height="32" viewBox="0 0 32 32">
<title>Search</title>
<path d="M31.78 30.099l-8.062-8.062c-0.144-0.144-0.331-0.219-0.531-0.219h-0.644c2.144-2.319 3.456-5.412 3.456-8.818 0-7.181-5.818-12.999-12.999-12.999s-12.999 5.818-12.999 12.999c0 7.181 5.818 12.999 12.999 12.999 3.406 0 6.5-1.312 8.818-3.45v0.637c0 0.2 0.081 0.387 0.219 0.531l8.062 8.062c0.294 0.294 0.769 0.294 1.062 0l0.619-0.619c0.294-0.294 0.294-0.769 0-1.062zM12.999 23.999c-6.081 0-10.999-4.919-10.999-10.999s4.918-10.999 10.999-10.999c6.081 0 10.999 4.918 10.999 10.999s-4.919 10.999-10.999 10.999z"></path>
</svg>
