<!-- Generated by IcoMoon.io -->
<svg version="1.1" xmlns="http://www.w3.org/2000/svg" width="32" height="32" viewBox="0 0 32 32">
<title>vpn</title>
<path d="M29.079 4.371h-4.354v-0.729c0-0.002 0-0.005 0-0.008 0-1.203 0.975-2.178 2.178-2.179h0c1.203 0.001 2.177 0.977 2.177 2.179 0 0.003 0 0.006-0 0.009v-0zM30.541 4.362v-0.727c-0-2.008-1.628-3.635-3.636-3.635v0c-2.007 0.001-3.634 1.629-3.634 3.636v0 0.726c-0.8 0-1.454 0.654-1.454 1.454v5.816c0 0.8 0.654 1.454 1.454 1.454h7.271c0.799 0 1.454-0.654 1.454-1.454v-5.816c0-0.8-0.655-1.454-1.454-1.454zM13.091 28.99c-5.744-0.713-10.179-5.602-10.179-11.538 0-0.903 0.117-1.761 0.306-2.605l6.965 6.97v1.455c0.005 1.605 1.304 2.904 2.908 2.91h0.001zM26.179 17.454c0 3.026-1.163 5.775-3.054 7.84-0.379-1.182-1.468-2.022-2.753-2.022-0.003 0-0.007 0-0.010 0h-1.453v-4.364c0-0.8-0.655-1.454-1.454-1.454h-8.725v-2.909h2.908c0.8 0 1.454-0.655 1.454-1.454v-2.91h2.908c1.605-0.005 2.904-1.304 2.909-2.908v-3.695c-1.297-0.425-2.79-0.67-4.341-0.67-0.008 0-0.015 0-0.023 0h0.001c-8.027 0-14.542 6.517-14.542 14.546s6.515 14.546 14.542 14.546 14.541-6.517 14.541-14.546c0-0.495-0.029-0.974-0.073-1.454h-2.951c0.058 0.48 0.116 0.96 0.116 1.454z"></path>
</svg>
