<!-- Generated by IcoMoon.io -->
<svg version="1.1" xmlns="http://www.w3.org/2000/svg" width="24" height="32" viewBox="0 0 24 32">
<title>word</title>
<path d="M23.304 6.124l-5.243-5.243c-0.562-0.562-1.325-0.881-2.118-0.881h-12.754c-1.656 0.006-2.999 1.35-2.999 3.006v25.995c0 1.656 1.343 2.999 2.999 2.999h17.996c1.656 0 2.999-1.343 2.999-2.999v-20.752c0-0.794-0.319-1.562-0.881-2.125zM21.892 7.542c0.131 0.131 0.219 0.287 0.262 0.462h-5.968v-5.968c0.175 0.044 0.331 0.131 0.462 0.262l5.243 5.243zM21.186 30h-17.996c-0.55 0-1-0.45-1-1v-25.995c0-0.55 0.45-1 1-1h10.998v6.499c0 0.831 0.669 1.5 1.5 1.5h6.499v18.996c0 0.55-0.45 1-1 1zM17.836 14.597c-0.425 2.050-2.031 8.73-2.087 9.392-0.362-1.818-0.044 0.1-2.612-9.429-0.088-0.325-0.387-0.556-0.725-0.556h-0.4c-0.337 0-0.637 0.225-0.725 0.556-2.393 8.892-2.337 8.786-2.462 9.667-0.256-1.493 0.131-0.181-2.15-9.648-0.081-0.337-0.381-0.575-0.731-0.575h-0.45c-0.487 0-0.844 0.456-0.725 0.931 0.594 2.375 2.156 8.586 2.637 10.498 0.081 0.331 0.381 0.569 0.725 0.569h1.062c0.337 0 0.637-0.231 0.725-0.556 2.137-7.98 2.093-7.711 2.293-8.93 0.406 1.943 0.012 0.437 2.293 8.93 0.088 0.325 0.387 0.556 0.725 0.556h0.875c0.344 0 0.856-0.231 0.944-0.562l2.674-10.498c0.119-0.475-0.237-0.937-0.725-0.937h-0.425c-0.356 0-0.662 0.25-0.737 0.594v0z"></path>
</svg>
