<?xml version="1.0" standalone="no"?>
<!DOCTYPE svg PUBLIC "-//W3C//DTD SVG 1.1//EN" "http://www.w3.org/Graphics/SVG/1.1/DTD/svg11.dtd" >
<svg xmlns="http://www.w3.org/2000/svg">
<metadata>Generated by IcoMoon</metadata>
<defs>
<font id="traded-icons" horiz-adv-x="1024">
<font-face units-per-em="1024" ascent="960" descent="-64" />
<missing-glyph horiz-adv-x="1024" />
<glyph unicode="&#x20;" horiz-adv-x="512" d="" />
<glyph unicode="&#xe900;" glyph-name="arrow-forward" d="M512 950.857l-90.24-90.24 357.12-357.76h-778.88v-128h778.88l-357.12-357.76 90.24-90.24 512 512z" />
<glyph unicode="&#xe901;" glyph-name="assignment" horiz-adv-x="928" d="M208.512 234.057h358.4v-102.4h-358.4v102.4zM208.512 438.857h512v-102.4h-512v102.4zM208.512 643.657h512v-102.4h-512v102.4zM822.912 848.457h-214.016c-21.504 59.392-77.824 102.4-144.384 102.4s-122.88-43.008-144.384-102.4h-214.016c-7.168 0-13.824-0.512-20.48-2.048-19.968-4.096-37.888-14.336-51.712-28.16-9.216-9.216-16.896-20.48-22.016-32.768-5.12-11.776-8.192-25.088-8.192-39.424v-716.8c0-13.824 3.072-27.648 8.192-39.936s12.8-23.040 22.016-32.768c13.824-13.824 31.744-24.064 51.712-28.16 6.656-1.024 13.312-1.536 20.48-1.536h716.8c56.32 0 102.4 46.080 102.4 102.4v716.8c0 56.32-46.080 102.4-102.4 102.4zM464.512 861.257c20.992 0 38.4-17.408 38.4-38.4s-17.408-38.4-38.4-38.4c-20.992 0-38.4 17.408-38.4 38.4s17.408 38.4 38.4 38.4zM822.912 29.257h-716.8v716.8h716.8v-716.8z" />
<glyph unicode="&#xe902;" glyph-name="calendar" horiz-adv-x="928" d="M824.416 851.049h-45.792v91.616h-91.616v-91.616h-458.016v91.616h-91.616v-91.616h-45.792c-50.368 0-91.616-41.216-91.616-91.616v-732.8c0-50.368 41.216-91.616 91.616-91.616h732.8c50.368 0 91.616 41.216 91.616 91.616v732.8c0 50.368-41.216 91.616-91.616 91.616zM824.416 26.665h-732.8v595.392h732.8v-595.392z" />
<glyph unicode="&#xe903;" glyph-name="check" horiz-adv-x="1408" d="M447.456 142.953l-333.792 318.432-113.664-107.68 447.456-426.848 960.544 916.32-112.864 107.68z" />
<glyph unicode="&#xe904;" glyph-name="chevron-right" horiz-adv-x="672" d="M25.344 47.177l390.816 391.68-390.816 391.68 120.32 120.32 512-512-512-512z" />
<glyph unicode="&#xe905;" glyph-name="close" d="M1024 847.774l-408.917-408.917 408.917-408.917-103.083-103.083-408.917 408.917-408.917-408.917-103.083 103.083 408.917 408.917-408.917 408.917 103.083 103.083 408.917-408.917 408.917 408.917z" />
<glyph unicode="&#xe906;" glyph-name="import-export" horiz-adv-x="800" d="M632.544 153.865v398.784h-113.792v-398.784h-170.688l227.584-227.008 227.552 227.008zM234.336 950.857l-227.552-227.008h170.688v-398.784h113.76v398.784h170.688z" />
<glyph unicode="&#xe907;" glyph-name="info" horiz-adv-x="1088" d="M489.28 694.857h102.432v-102.4h-102.432v102.4zM489.28 490.057h102.432v-307.2h-102.432v307.2zM540.512 950.857c-282.688 0-512.096-229.376-512.096-512s229.408-512 512.096-512c282.688 0 512.096 229.376 512.096 512s-229.408 512-512.096 512zM540.512 29.257c-225.824 0-409.664 183.808-409.664 409.6s183.84 409.6 409.664 409.6c225.824 0 409.664-183.808 409.664-409.6s-183.84-409.6-409.664-409.6z" />
<glyph unicode="&#xe908;" glyph-name="mail" horiz-adv-x="1344" d="M1213.472-63.255c34.88 0 64.512 12.192 88.928 36.608s36.608 54.048 36.608 88.928v0 753.184c0 34.88-12.192 64.512-36.608 88.928s-54.048 36.608-88.928 36.608v0h-1087.936c-34.88 0-64.512-12.192-88.928-36.608s-36.608-54.048-36.608-88.928v0-753.184c0-34.88 12.192-64.512 36.608-88.928s54.048-36.608 88.928-36.608v0h1087.936zM669.504 313.321c-22.656 0-50.56 11.328-83.68 33.984-20.928 12.192-48.832 33.12-83.68 62.752v0l-23.552 20.928c-174.336 136-292.032 228.384-353.056 277.216v0 107.232h1087.936v-107.232c-61.024-50.56-178.72-142.976-353.056-277.216v0l-23.552-20.928c-34.88-29.632-62.752-50.56-83.68-62.752-33.12-22.656-61.024-33.984-83.68-33.984zM1213.472 62.249h-1087.936v486.432l300.768-240.608c45.344-36.608 81.088-62.752 107.232-78.464 48.832-27.904 94.144-41.856 136-41.856s86.304 13.952 133.376 41.856c27.904 15.68 63.648 41.856 107.232 78.464v0l303.36 240.608v-486.432z" />
<glyph unicode="&#xe909;" glyph-name="menu" horiz-adv-x="1120" d="M1126.208 63.401v-136.544h-1126.4v136.544h1126.4zM1126.208 507.113v-136.544h-1126.4v136.544h1126.4zM1126.208 950.857v-136.544h-1126.4v136.544h1126.4z" />
<glyph unicode="&#xe90a;" glyph-name="pdf" horiz-adv-x="768" d="M745.728 754.889l-167.776 167.776c-17.984 17.984-42.4 28.192-67.776 28.192h-408.128c-52.992-0.192-95.968-43.2-95.968-96.192v-831.84c0-52.992 42.976-95.968 95.968-95.968h575.872c52.992 0 95.968 42.976 95.968 95.968v664.064c0 25.408-10.208 49.984-28.192 68zM700.544 709.513c4.192-4.192 7.008-9.184 8.384-14.784h-190.976v190.976c5.6-1.408 10.592-4.192 14.784-8.384l167.776-167.776zM677.952-9.143h-575.872c-17.6 0-32 14.4-32 32v831.84c0 17.6 14.4 32 32 32h351.936v-207.968c0-26.592 21.408-48 48-48h207.968v-607.872c0-17.6-14.4-32-32-32zM633.952 333.193c-27.008 26.592-109.984 18.4-147.36 13.408-42.4 25.6-70.4 60.8-90.176 113.184 8.608 36 24 94.368 12.8 129.76-8.8 56.192-79.392 49.376-89.184 13.6-9.984-36.608-0.608-88.768 16.8-155.584-23.808-56.8-59.392-133.76-84.192-177.152-41.6-21.408-108.192-58.592-117.568-104.768-7.008-33.6 45.792-78.784 106.176-12.8 18.208 19.808 38.592 49.6 62.592 90.976 53.376 17.6 112.192 39.584 163.968 48 43.776-24 95.168-39.808 129.184-39.808 55.392-0.192 57.792 60.384 36.992 81.184v0zM175.648 155.209c11.808 31.808 57.184 68.8 70.976 81.6-44.192-70.592-70.976-82.976-70.976-81.6zM366.016 599.721c17.408 0 15.584-74.976 4.192-95.168-10.4 32.608-9.984 95.168-4.192 95.168zM309.216 281.193c22.592 39.584 41.984 86.4 57.6 127.36 19.392-35.392 44.192-63.392 70.176-82.976-48.576-9.408-90.784-30.208-127.776-44.384zM615.968 293.001c0 0-11.584-13.984-86.976 18.208 81.984 5.984 95.392-12.8 86.976-18.208z" />
<glyph unicode="&#xe90b;" glyph-name="refresh" d="M873.28 800.457c-92.8 92.8-220.16 150.4-361.6 150.4-282.88 0-511.36-229.12-511.36-512s228.48-512 511.36-512c238.72 0 437.76 163.2 494.72 384h-133.12c-52.48-149.12-194.56-256-361.6-256-211.84 0-384 172.16-384 384s172.16 384 384 384c106.24 0 200.96-44.16 270.080-113.92l-206.080-206.080h448v448l-150.4-150.4z" />
<glyph unicode="&#xe90c;" glyph-name="search" d="M1016.96-12.311l-257.984 257.984c-4.608 4.608-10.592 7.008-16.992 7.008h-20.608c68.608 74.208 110.592 173.184 110.592 282.176 0 229.792-186.176 415.968-415.968 415.968s-415.968-186.176-415.968-415.968c0-229.792 186.176-415.968 415.968-415.968 108.992 0 208 41.984 282.176 110.4v-20.384c0-6.4 2.592-12.384 7.008-16.992l257.984-257.984c9.408-9.408 24.608-9.408 33.984 0l19.808 19.808c9.408 9.408 9.408 24.608 0 33.984zM415.968 182.889c-194.592 0-351.968 157.408-351.968 351.968s157.376 351.968 351.968 351.968c194.592 0 351.968-157.376 351.968-351.968s-157.408-351.968-351.968-351.968z" />
<glyph unicode="&#xe90d;" glyph-name="verified" horiz-adv-x="832" d="M416.512 947.913l-416.512-185.12v-277.664c0-256.832 177.696-497.024 416.512-555.328 238.784 58.304 416.512 298.496 416.512 555.328v277.664l-416.512 185.12zM740.448 485.129c0-209.184-137.92-402.144-323.936-459.552-186.048 57.376-323.936 250.368-323.936 459.552v217.504l323.936 143.936 323.936-143.936v-217.504zM204.096 457.833l-65.248-65.248 185.12-185.12 370.24 370.208-65.248 65.728-304.96-304.96-119.872 119.392z" />
<glyph unicode="&#xe90e;" glyph-name="vpn" d="M930.528 810.985h-139.328v23.328c0 0.064 0 0.16 0 0.256 0 38.496 31.2 69.696 69.696 69.728v0c38.496-0.032 69.664-31.264 69.664-69.728 0-0.096 0-0.192 0-0.288v0zM977.312 811.273v23.264c0 64.256-52.096 116.32-116.352 116.32v0c-64.224-0.032-116.288-52.128-116.288-116.352v0-23.232c-25.6 0-46.528-20.928-46.528-46.528v-186.112c0-25.6 20.928-46.528 46.528-46.528h232.672c25.568 0 46.528 20.928 46.528 46.528v186.112c0 25.6-20.96 46.528-46.528 46.528zM418.912 23.177c-183.808 22.816-325.728 179.264-325.728 369.216 0 28.896 3.744 56.352 9.792 83.36l222.88-223.040v-46.56c0.16-51.36 41.728-92.928 93.056-93.12h0.032zM837.728 392.329c0-96.832-37.216-184.8-97.728-250.88-12.128 37.824-46.976 64.704-88.096 64.704-0.096 0-0.224 0-0.32 0h-46.496v139.648c0 25.6-20.96 46.528-46.528 46.528h-279.2v93.088h93.056c25.6 0 46.528 20.96 46.528 46.528v93.12h93.056c51.36 0.16 92.928 41.728 93.088 93.056v118.24c-41.504 13.6-89.28 21.44-138.912 21.44-0.256 0-0.48 0-0.736 0h0.032c-256.864 0-465.344-208.544-465.344-465.472s208.48-465.472 465.344-465.472 465.312 208.544 465.312 465.472c0 15.84-0.928 31.168-2.336 46.528h-94.432c1.856-15.36 3.712-30.72 3.712-46.528z" />
<glyph unicode="&#xe90f;" glyph-name="word" horiz-adv-x="768" d="M745.728 754.889l-167.776 167.776c-17.984 17.984-42.4 28.192-67.776 28.192h-408.128c-52.992-0.192-95.968-43.2-95.968-96.192v-831.84c0-52.992 42.976-95.968 95.968-95.968h575.872c52.992 0 95.968 42.976 95.968 95.968v664.064c0 25.408-10.208 49.984-28.192 68zM700.544 709.513c4.192-4.192 7.008-9.184 8.384-14.784h-190.976v190.976c5.6-1.408 10.592-4.192 14.784-8.384l167.776-167.776zM677.952-9.143h-575.872c-17.6 0-32 14.4-32 32v831.84c0 17.6 14.4 32 32 32h351.936v-207.968c0-26.592 21.408-48 48-48h207.968v-607.872c0-17.6-14.4-32-32-32zM570.752 483.753c-13.6-65.6-64.992-279.36-66.784-300.544-11.584 58.176-1.408-3.2-83.584 301.728-2.816 10.4-12.384 17.792-23.2 17.792h-12.8c-10.784 0-20.384-7.2-23.2-17.792-76.576-284.544-74.784-281.152-78.784-309.344-8.192 47.776 4.192 5.792-68.8 308.736-2.592 10.784-12.192 18.4-23.392 18.4h-14.4c-15.584 0-27.008-14.592-23.2-29.792 19.008-76 68.992-274.752 84.384-335.936 2.592-10.592 12.192-18.208 23.2-18.208h33.984c10.784 0 20.384 7.392 23.2 17.792 68.384 255.36 66.976 246.752 73.376 285.76 12.992-62.176 0.384-13.984 73.376-285.76 2.816-10.4 12.384-17.792 23.2-17.792h28c11.008 0 27.392 7.392 30.208 17.984l85.568 335.936c3.808 15.2-7.584 29.984-23.2 29.984h-13.6c-11.392 0-21.184-8-23.584-19.008v0z" />
<glyph unicode="&#xe910;" glyph-name="copy" d="M969.143 731.428c30.286 0 54.857-24.571 54.857-54.857v-694.857c0-30.286-24.571-54.857-54.857-54.857h-548.571c-30.286 0-54.857 24.571-54.857 54.857v164.571h-310.857c-30.286 0-54.857 24.571-54.857 54.857v384c0 30.286 17.714 72.571 38.857 93.714l233.143 233.143c21.143 21.143 63.429 38.857 93.714 38.857h237.714c30.286 0 54.857-24.571 54.857-54.857v-187.429c22.286 13.143 50.857 22.857 73.143 22.857h237.714zM658.286 609.714l-170.857-170.857h170.857v170.857zM292.571 829.143l-170.857-170.857h170.857v170.857zM404.571 459.428l180.571 180.571v237.714h-219.429v-237.714c0-30.286-24.571-54.857-54.857-54.857h-237.714v-365.714h292.571v146.286c0 30.286 17.714 72.571 38.857 93.714zM950.857 0v658.286h-219.429v-237.714c0-30.286-24.571-54.857-54.857-54.857h-237.714v-365.714h512z" />
<glyph unicode="&#xe911;" glyph-name="print" horiz-adv-x="951" d="M219.429 73.143h512v146.286h-512v-146.286zM219.429 438.857h512v219.429h-91.429c-30.286 0-54.857 24.571-54.857 54.857v91.429h-365.714v-365.714zM877.714 402.286c0 20-16.571 36.571-36.571 36.571s-36.571-16.571-36.571-36.571 16.571-36.571 36.571-36.571 36.571 16.571 36.571 36.571zM950.857 402.286v-237.714c0-9.714-8.571-18.286-18.286-18.286h-128v-91.429c0-30.286-24.571-54.857-54.857-54.857h-548.571c-30.286 0-54.857 24.571-54.857 54.857v91.429h-128c-9.714 0-18.286 8.571-18.286 18.286v237.714c0 60 49.714 109.714 109.714 109.714h36.571v310.857c0 30.286 24.571 54.857 54.857 54.857h384c30.286 0 72-17.143 93.714-38.857l86.857-86.857c21.714-21.714 38.857-63.429 38.857-93.714v-146.286h36.571c60 0 109.714-49.714 109.714-109.714z" />
<glyph unicode="&#xe912;" glyph-name="navigate_before" d="M658 622.667l-196-196 196-196-60-60-256 256 256 256z" />
<glyph unicode="&#xe913;" glyph-name="navigate_next" d="M426 682.667l256-256-256-256-60 60 196 196-196 196z" />
</font>
</defs>
</svg>
