<?xml version="1.0" encoding="UTF-8"?>
<svg width="111px" height="39px" viewBox="0 0 111 39" version="1.1" xmlns="http://www.w3.org/2000/svg" xmlns:xlink="http://www.w3.org/1999/xlink">
    <g id="Page-1" stroke="none" stroke-width="1" fill="none" fill-rule="evenodd">
        <g id="Profile" transform="translate(-886.000000, -459.000000)" fill-rule="nonzero">
            <g id="Australian-Chamber-of-Commerce" transform="translate(351.000000, 198.000000)">
                <g id="Identity" transform="translate(45.000000, 152.000000)">
                    <g id="MyGovID_logo" transform="translate(490.000000, 109.000000)">
                        <path d="M62.6712,9.6168 C62.6712,8.7384 62.244,8.076 61.152,8.076 C60.328689,8.10519958 59.5662051,8.51706511 59.0904,9.1896 L59.0904,16.5888 L55.44,16.5888 L55.44,9.6168 C55.44,8.7384 55.0368,8.076 53.9232,8.076 C52.9512,8.076 52.2624,8.7168 51.8832,9.1896 L51.8832,16.5888 L48.24,16.5888 L48.24,5.136 L51.8928,5.136 L51.8928,6.5328 C52.392,5.8704 53.8608,4.8528 55.6632,4.8528 C57.3,4.8528 58.4376,5.5392 58.9128,6.8928 C59.8325169,5.6208644 61.3032171,4.86323097 62.8728,4.8528 C64.9824,4.8528 66.3096,5.9424 66.3096,8.292 L66.3096,16.5912 L62.6712,16.5912 L62.6712,9.6168 Z" id="Path" fill="#000000"></path>
                        <path d="M69.0384,18.012 C69.8664,18.012 70.3896,17.844 70.5792,17.3712 L70.8384,16.7544 L66.2784,5.136 L70.1184,5.136 L72.72,12.3912 L75.3216,5.136 L79.1856,5.136 L74.0184,18.2232 C73.092,20.6424 71.3616,21.1872 69.18,21.2352 C68.6530961,21.228507 68.1284552,21.1649386 67.6152,21.0456 L68.136,17.7984 C68.4162657,17.9383402 68.72514,18.0114514 69.0384,18.012 L69.0384,18.012 Z" id="Path" fill="#000000"></path>
                        <path d="M56.0784,19.4784 C59.5392,19.4784 61.6752,21.1872 62.8368,23.1552 L59.4216,24.96 C58.7078891,23.7974701 57.4425309,23.0880338 56.0784,23.0856 C53.4936,23.0856 51.6672,25.0776 51.6672,27.6624 C51.6672,30.2472 53.4936,32.2392 56.0784,32.2392 C57.1509928,32.2565611 58.2000017,31.923743 59.0664,31.2912 L59.0664,29.9616 L55.44,29.9616 L55.44,26.5704 L63.0768,26.5704 L63.0768,32.7576 C61.3074969,34.7585169 58.7514165,35.8852968 56.0808,35.8416 C51.36,35.8416 47.52,32.688 47.52,27.66 C47.52,22.632 51.36,19.4784 56.0784,19.4784 Z" id="Path" fill="#000000"></path>
                        <path d="M63.996,29.8176 C63.996,26.592 66.3432,23.8176 70.236,23.8176 C74.172,23.8176 76.4952,26.592 76.4952,29.8176 C76.4952,33.0432 74.172,35.8416 70.236,35.8416 C66.3432,35.8416 63.996,33.0432 63.996,29.8176 Z M72.7464,29.8176 C72.7464,28.3008 71.844,27.0432 70.2336,27.0432 C68.6232,27.0432 67.7664,28.3008 67.7664,29.8176 C67.7664,31.3344 68.64,32.616 70.2336,32.616 C71.8272,32.616 72.7464,31.3584 72.7464,29.8176 L72.7464,29.8176 Z" id="Shape" fill="#000000"></path>
                        <polygon id="Path" fill="#000000" points="75.66 24.1032 79.5 24.1032 82.08 31.3584 84.6888 24.1032 88.56 24.1032 84.0552 35.556 80.16 35.556"></polygon>
                        <polygon id="Path" fill="#3CFF00" points="89.316 19.968 92.9688 19.968 92.9688 35.568 89.316 35.568"></polygon>
                        <path d="M94.9296,19.74 L101.5704,19.74 C106.5504,19.74 110.1312,22.728 110.1312,27.636 C110.1312,32.544 106.5504,35.556 101.5944,35.556 L94.9296,35.556 L94.9296,19.74 Z M101.5704,31.9992 C104.3448,31.9992 105.9576,29.9832 105.9576,27.636 C105.9576,25.1928 104.4864,23.2968 101.5944,23.2968 L99.0096,23.2968 L99.0096,31.9992 L101.5704,31.9992 Z" id="Shape" fill="#3CFF00"></path>
                        <path d="M36.9096,26.5488 C36.7709363,26.5419528 36.6345124,26.511095 36.5064,26.4576 C35.8688202,26.1951659 35.5631303,25.4668731 35.8224,24.828 C36.0281772,24.3207325 36.1887999,23.7962994 36.3024,23.2608 C37.4474054,18.0325082 36.0408726,12.5711703 32.5128,8.5464 C32.0601474,8.02482228 32.1160223,7.23505258 32.6376,6.7824 C33.1591777,6.32974742 33.9489474,6.38562228 34.4016,6.9072 C38.4472962,11.524832 40.0595396,17.789422 38.7456,23.7864 C38.5999725,24.465947 38.3935415,25.1310244 38.1288,25.7736 C37.9296654,26.2658641 37.4398511,26.5773011 36.9096,26.5488 L36.9096,26.5488 Z" id="Path" fill="#3CFF00"></path>
                        <path d="M13.2,9.4392 C12.6440983,9.41001946 12.1747371,9.01619734 12.0494432,8.47381404 C11.9241493,7.93143074 12.1732215,7.37164609 12.66,7.1016 C14.8952755,5.84765647 17.4247182,5.21301739 19.9872,5.2632 C20.4454493,5.25461694 20.8716707,5.49743229 21.0979701,5.89599809 C21.3242695,6.29456389 21.314376,6.78499841 21.0721868,7.17411343 C20.8299975,7.56322845 20.3943304,7.788657 19.9368,7.7616 C17.8191298,7.72242261 15.7291912,8.2475994 13.8816,9.2832 C13.6740035,9.399338 13.4374457,9.45347976 13.2,9.4392 Z" id="Path" fill="#3CFF00"></path>
                        <path d="M15.0312,36.5376 L14.3688,36 C8.96882399,31.3678758 6.53809353,24.151213 8.0352,17.196 C8.42050801,15.3798707 9.22879626,13.6802453 10.3944,12.2352 C10.8265076,11.6977165 10.7410835,10.9117076 10.2036,10.4796 C9.66611648,10.0474924 8.88010759,10.1329165 8.448,10.6704 C7.03773866,12.4181839 6.05928482,14.4737592 5.592,16.6704 C3.90205148,24.5232973 6.64687206,32.6711774 12.744,37.9008 C13.0104,38.1408 13.2384,38.3184 13.464,38.4936 C14.0023302,38.9125088 14.7770669,38.8226758 15.2052549,38.2916965 C15.6334429,37.7607172 15.5570685,36.9845383 15.0336,36.5472 L15.0312,36.5376 Z" id="Path" fill="#3CFF00"></path>
                        <path d="M2.0328,28.7328 C1.4902572,28.7017551 1.03017009,28.3232025 0.8952,27.7968 C-0.0105908105,24.3014932 -0.18867171,20.6573698 0.372,17.0904 C0.496698784,16.4262179 1.12655369,15.9812941 1.79421738,16.0857585 C2.46188106,16.1902229 2.92573356,16.806271 2.8416,17.4768 C2.33630836,20.7075883 2.49968097,24.0077152 3.3216,27.1728 C3.49315329,27.8420613 3.09050796,28.5238741 2.4216,28.6968 C2.29454334,28.7282574 2.16347249,28.7403936 2.0328,28.7328 L2.0328,28.7328 Z" id="Path" fill="#3CFF00"></path>
                        <path d="M2.9088,13.6536 C2.76151924,13.6458077 2.61682932,13.6116674 2.4816,13.5528 C2.17738601,13.4210451 1.93809568,13.1736635 1.81652643,12.8652378 C1.69495717,12.556812 1.70110016,12.2126903 1.8336,11.9088 C4.12411213,6.653607 8.61177215,2.67309876 14.1027754,1.02616766 C19.5937787,-0.620763445 25.5313573,0.23287551 30.336,3.36 C30.8908818,3.74562223 31.0390167,4.50231862 30.6705061,5.0687091 C30.3019954,5.63509959 29.5501717,5.80625585 28.9728,5.4552 C24.7860288,2.72802669 19.6111338,1.98184835 14.8244594,3.41512282 C10.0377851,4.84839728 6.12457175,8.31582896 4.1256,12.8952 C3.92074463,13.3795001 3.43382268,13.682986 2.9088,13.6536 Z" id="Path" fill="#3CFF00"></path>
                        <path d="M23.5752,37.9896 C23.5105261,37.9867039 23.4462555,37.9778667 23.3832,37.9632 C17.04,36.6 12,31.524 10.5408,25.032 C10.3883694,24.3579917 10.8111917,23.6880306 11.4852,23.5356001 C12.1592083,23.3831695 12.8291694,23.8059917 12.9816,24.48 C14.2176,30.0192 18.5016,34.3488 23.9088,35.52 C24.5434248,35.6606109 24.9644754,36.264016 24.8774599,36.9081809 C24.7904445,37.5523458 24.2243869,38.0224098 23.5752,37.9896 L23.5752,37.9896 Z" id="Path" fill="#3CFF00"></path>
                        <path d="M27.6,22.6536 C27.5354387,22.6495252 27.4712651,22.6407013 27.408,22.6272 C26.7333707,22.4810404 26.3040782,21.8167103 26.448,21.1416 C27.0891274,18.6854726 26.330891,16.0756138 24.4735075,14.3453732 C22.6161239,12.6151325 19.9591373,12.0435495 17.5545568,12.856937 C15.1499764,13.6703245 13.3855938,15.737506 12.96,18.24 C12.8508431,18.7672053 12.7707225,19.3000076 12.72,19.836 C12.6242779,20.4965002 12.0267039,20.9653992 11.3623911,20.9012764 C10.6980783,20.8371535 10.2012222,20.2626145 10.2336,19.596 C10.2963974,18.9679915 10.3933409,18.3438678 10.524,17.7264 C11.643057,12.6798907 16.6256804,9.48287518 21.6794445,10.5686989 C26.7332086,11.6545227 29.9629435,16.616 28.9104,21.6768 C28.7762893,22.2823193 28.2185992,22.6980334 27.6,22.6536 Z" id="Path" fill="#3CFF00"></path>
                        <path d="M27.3096,27.6792 C26.9866514,27.6617174 26.6656236,27.6183786 26.3496,27.5496 C24.9528272,27.2484515 23.7006304,26.4796924 22.8,25.3704 C22.5191892,25.0235666 22.4447428,24.5532685 22.604704,24.1366625 C22.7646652,23.7200565 23.1347321,23.420435 23.575504,23.3506625 C24.016276,23.28089 24.4607893,23.4515666 24.7416,23.7984 C25.2803172,24.4666552 26.0330493,24.928636 26.8728,25.1064 C28.9164142,25.5422819 30.9269117,24.2406136 31.3656,22.1976 C32.5599462,16.6160949 29.6376963,10.9696967 24.3912,8.7216 C23.96342,8.55813537 23.6592217,8.17389859 23.5982593,7.72002636 C23.5372968,7.26615412 23.7293243,6.81526615 24.098809,6.54471589 C24.4682938,6.27416562 24.9561181,6.2272412 25.3704,6.4224 C31.7184382,9.14014114 35.2553303,15.9705565 33.8112,22.7232 C33.1573802,25.749094 30.4005805,27.8505304 27.3096,27.6792 L27.3096,27.6792 Z" id="Path" fill="#3CFF00"></path>
                        <path d="M27.0432,32.8008 C26.3608511,32.7625731 25.8356007,32.1835885 25.8638062,31.500752 C25.8920117,30.8179155 26.463223,30.2842219 27.1464,30.3024 C29.3202136,30.3754175 31.4514214,29.6879311 33.1728,28.3584 C33.7162951,27.9662337 34.4723385,28.0723157 34.8869202,28.5989117 C35.3015019,29.1255077 35.227173,29.8853302 34.7184,30.3216 C32.5393592,32.0106986 29.8396804,32.8873941 27.084,32.8008 L27.0432,32.8008 Z" id="Path" fill="#3CFF00"></path>
                        <path d="M22.1616,31.6008 C21.9947156,31.5908517 21.8315102,31.5476022 21.6816,31.4736 C16.8192,29.0736 14.3016,23.9664 15.4176,18.7728 C15.6615236,17.6369699 16.346927,16.644677 17.3228574,16.0144637 C18.2987877,15.3842504 19.4852003,15.1678059 20.6208,15.4128 C22.7952,15.8784 24.1968,17.9808 24.0288,20.52 C23.9850867,21.20464 23.3960049,21.7250492 22.7112,21.684 L22.7112,21.684 C22.0228373,21.6378139 21.5019536,21.0428251 21.5472,20.3544 C21.6168,19.3152 21.1944,18.0888 20.1072,17.856 C19.0933102,17.6378708 18.0943859,18.2823381 17.8752,19.296 C17.0016,23.352 18.9816,27.3456 22.8,29.232 C23.3323787,29.4957533 23.6056478,30.0977114 23.4537578,30.6721001 C23.3018678,31.2464888 22.7667651,31.6346829 22.1736,31.6008 L22.1616,31.6008 Z" id="Path" fill="#3CFF00"></path>
                    </g>
                </g>
            </g>
        </g>
    </g>
</svg>