<svg xmlns="http://www.w3.org/2000/svg" width="77" height="27" viewBox="0 0 77 27"><g><g><g><path fill="#fff" d="M43.872 6.735c0-.615-.3-1.079-1.064-1.079-.576.02-1.11.309-1.443.78v5.18H38.81V6.734c0-.615-.282-1.079-1.062-1.079-.68 0-1.162.449-1.428.78v5.18h-2.55V3.597h2.557v.978c.35-.464 1.378-1.176 2.64-1.176 1.145 0 1.941.48 2.274 1.428A3.449 3.449 0 0 1 44.013 3.4c1.477 0 2.406.763 2.406 2.407v5.81h-2.547z"/></g><g><path fill="#fff" d="M48.322 12.613c.58 0 .946-.117 1.079-.448l.181-.432L46.39 3.6h2.688l1.821 5.079L52.72 3.6h2.705l-3.617 9.161c-.648 1.693-1.86 2.075-3.387 2.108a5.124 5.124 0 0 1-1.095-.132l.364-2.273c.197.098.413.149.632.15z"/></g><g><path fill="#fff" d="M39.25 13.63c2.423 0 3.919 1.196 4.732 2.574l-2.39 1.263a2.752 2.752 0 0 0-2.341-1.312c-1.81 0-3.088 1.394-3.088 3.204 0 1.81 1.279 3.204 3.088 3.204.75.012 1.485-.221 2.091-.664v-.93h-2.538v-2.375h5.346v4.331a6.397 6.397 0 0 1-4.897 2.16c-3.305 0-5.993-2.208-5.993-5.728 0-3.52 2.688-5.727 5.99-5.727z"/></g><g><path fill="#fff" d="M50.925 20.87c0 1.079-.643 1.959-1.759 1.959-1.115 0-1.727-.897-1.727-1.959s.6-1.942 1.727-1.942c1.128 0 1.76.88 1.76 1.942zm-1.757 4.217c2.755 0 4.381-1.96 4.381-4.217 0-2.258-1.626-4.2-4.381-4.2-2.725 0-4.368 1.942-4.368 4.2s1.643 4.217 4.368 4.217z"/></g><g><path fill="#fff" d="M52.96 16.87h2.688l1.806 5.079 1.826-5.079h2.71l-3.153 8.017H56.11z"/></g><g><path fill="#3cff00" d="M62.52 13.98h2.557V24.9H62.52z"/></g><g><path fill="#3cff00" d="M69.306 22.401V16.31h1.81c2.024 0 3.054 1.327 3.054 3.037 0 1.643-1.13 3.054-3.071 3.054zm-2.856 2.49h4.665c3.47 0 5.976-2.108 5.976-5.544 0-3.435-2.506-5.527-5.992-5.527H66.45z"/></g><g><path fill="#3cff00" d="M25.832 18.58a.877.877 0 0 1-.761-1.205c.144-.354.256-.721.336-1.096a11.797 11.797 0 0 0-2.653-10.3.875.875 0 0 1 1.322-1.147 13.534 13.534 0 0 1 3.041 11.815 8.116 8.116 0 0 1-.432 1.391.87.87 0 0 1-.853.543z"/></g><g><path fill="#3cff00" d="M9.238 6.605A.874.874 0 0 1 8.86 4.97a10.08 10.08 0 0 1 5.129-1.287.875.875 0 1 1-.035 1.749 8.353 8.353 0 0 0-4.239 1.065.87.87 0 0 1-.477.11z"/></g><g><path fill="#3cff00" d="M10.521 25.573l-.464-.376a13.578 13.578 0 0 1-4.433-13.163 8.262 8.262 0 0 1 1.651-3.472.874.874 0 0 0-1.362-1.096 10.002 10.002 0 0 0-2 4.2A15.33 15.33 0 0 0 8.92 26.528c.186.168.346.292.504.415a.875.875 0 0 0 1.099-1.363z"/></g><g><path fill="#3cff00" d="M1.426 20.114a.874.874 0 0 1-.796-.656 18.453 18.453 0 0 1-.366-7.494.875.875 0 0 1 1.729.27 16.723 16.723 0 0 0 .335 6.788.877.877 0 0 1-.902 1.092z"/></g><g><path fill="#3cff00" d="M2.035 9.554a.874.874 0 0 1-.753-1.221A13.645 13.645 0 0 1 21.235 2.35a.875.875 0 0 1-.954 1.467A11.894 11.894 0 0 0 2.887 9.024a.872.872 0 0 1-.852.53z"/></g><g><path fill="#3cff00" d="M16.506 26.59a.738.738 0 0 1-.135-.019c-4.44-.954-7.968-4.507-8.99-9.052a.876.876 0 0 1 1.71-.386c.865 3.877 3.863 6.908 7.648 7.728a.875.875 0 0 1-.233 1.729z"/></g><g><path fill="#3cff00" d="M19.318 15.858a.877.877 0 0 1-.806-1.058 4.833 4.833 0 1 0-9.442-2.032c-.077.37-.133.742-.168 1.117a.875.875 0 0 1-1.741-.168c.044-.44.112-.876.203-1.308a6.582 6.582 0 0 1 12.87 2.765.875.875 0 0 1-.916.684z"/></g><g><path fill="#3cff00" d="M19.122 19.373a4.393 4.393 0 0 1-3.157-1.616.874.874 0 1 1 1.359-1.1 2.61 2.61 0 0 0 1.492.915 2.651 2.651 0 0 0 3.145-2.036 8.36 8.36 0 0 0-4.882-9.433.875.875 0 1 1 .685-1.61 10.112 10.112 0 0 1 5.909 11.411 4.407 4.407 0 0 1-4.551 3.47z"/></g><g><path fill="#3cff00" d="M18.926 22.965A.875.875 0 0 1 19 21.216a6.542 6.542 0 0 0 4.218-1.36.875.875 0 0 1 1.082 1.374 8.297 8.297 0 0 1-5.344 1.735z"/></g><g><path fill="#3cff00" d="M15.514 22.12a.877.877 0 0 1-.336-.089c-3.404-1.68-5.166-5.255-4.385-8.89a3.064 3.064 0 0 1 3.643-2.352c1.522.326 2.503 1.798 2.385 3.575a.872.872 0 0 1-.922.815.875.875 0 0 1-.815-.931c.049-.727-.247-1.586-1.008-1.749a1.315 1.315 0 0 0-1.562 1.008c-.612 2.84.774 5.635 3.447 6.955a.875.875 0 0 1-.438 1.659z"/></g></g></g></svg>